<?xml version="1.0" encoding="utf-8"?>
<!-- Generator: Adobe Illustrator 23.1.1, SVG Export Plug-In . SVG Version: 6.00 Build 0)  -->
<svg version="1.1" id="Layer_1" xmlns="http://www.w3.org/2000/svg" xmlns:xlink="http://www.w3.org/1999/xlink" x="0px" y="0px"
	 viewBox="0 0 300 300" style="enable-background:new 0 0 300 300;" xml:space="preserve">
<style type="text/css">
	.st0{fill:#2F4888;}
</style>
<g>
	<g>
		<g>
			<g>
				<g>
					<path class="st0" d="M235.6,253.9H65c-5.6,0-10.2-4.6-10.2-10.2V108.8c0-2,1.7-3.7,3.7-3.7h183.6c2,0,3.7,1.7,3.7,3.7v134.9
						C245.8,249.3,241.3,253.9,235.6,253.9z M62.2,112.5v131.2c0,1.5,1.2,2.8,2.8,2.8h170.7c1.5,0,2.8-1.2,2.8-2.8V112.5H62.2z"/>
				</g>
			</g>
			<g>
				<path class="st0" d="M242.1,112.5H58.5c-2,0-3.7-1.7-3.7-3.7V73.3c0-5.6,4.6-10.2,10.2-10.2h28.9c2,0,3.7,1.7,3.7,3.7v6.2
					c0,5.2,4.2,9.3,9.3,9.3c5.2,0,9.3-4.2,9.3-9.3v-6.2c0-2,1.7-3.7,3.7-3.7h60.7c2,0,3.7,1.7,3.7,3.7v6.2c0,5.2,4.2,9.3,9.3,9.3
					s9.3-4.2,9.3-9.3v-6.2c0-2,1.7-3.7,3.7-3.7h28.9c5.6,0,10.2,4.6,10.2,10.2v35.5C245.8,110.9,244.2,112.5,242.1,112.5z"/>
			</g>
			<g>
				<g>
					<path class="st0" d="M106.9,89.8c-9.2,0-16.7-7.5-16.7-16.7V57.2c0-9.2,7.5-16.7,16.7-16.7c9.2,0,16.7,7.5,16.7,16.7v15.9
						C123.6,82.3,116.1,89.8,106.9,89.8z M106.9,47.8c-5.2,0-9.3,4.2-9.3,9.3v15.9c0,5.2,4.2,9.3,9.3,9.3c5.2,0,9.3-4.2,9.3-9.3
						V57.2C116.2,52,112.1,47.8,106.9,47.8z"/>
				</g>
			</g>
			<g>
				<g>
					<path class="st0" d="M193.7,89.8c-9.2,0-16.7-7.5-16.7-16.7V57.2c0-9.2,7.5-16.7,16.7-16.7s16.7,7.5,16.7,16.7v15.9
						C210.4,82.3,202.9,89.8,193.7,89.8z M193.7,47.8c-5.2,0-9.3,4.2-9.3,9.3v15.9c0,5.2,4.2,9.3,9.3,9.3c5.2,0,9.3-4.2,9.3-9.3
						V57.2C203,52,198.9,47.8,193.7,47.8z"/>
				</g>
			</g>
		</g>
	</g>
	<g>
		<path class="st0" d="M113.2,129.6c3.7,0,7.2,0.8,10.7,2.2c3.4,1.5,6.6,3.8,9.3,7c2.8,3.2,5,7.4,6.6,12.7
			c1.6,5.3,2.4,11.8,2.4,19.5c0,7.2-0.6,13.8-1.9,19.7c-1.3,6-3.1,11.1-5.6,15.5s-5.6,7.7-9.4,10.1c-3.8,2.4-8.2,3.6-13.3,3.6
			c-4.7,0-8.9-1-12.5-3c-3.6-2-6.6-4.7-8.9-8.2c-2.3-3.5-3.7-7.6-4.2-12.2h7.9c0.8,4.7,2.7,8.5,5.7,11.6c3,3,7,4.5,12,4.5
			c7.2,0,12.7-3.3,16.7-10c4-6.7,6-16.2,6-28.6h-0.6c-1.4,2.6-3.2,4.8-5.4,6.7c-2.2,1.9-4.7,3.4-7.6,4.5c-2.8,1.1-5.8,1.6-9,1.6
			c-4.9,0-9.4-1.2-13.4-3.7c-4.1-2.5-7.3-5.9-9.7-10.2c-2.4-4.3-3.6-9.2-3.6-14.7c0-5.2,1.1-10,3.5-14.4c2.3-4.4,5.5-7.9,9.7-10.5
			C102.7,130.9,107.6,129.6,113.2,129.6z M113.2,136.8c-3.8,0-7.2,1-10.2,2.9c-3,1.9-5.4,4.6-7.2,7.8c-1.8,3.3-2.6,6.9-2.6,10.9
			s0.9,7.6,2.6,10.8c1.8,3.2,4.1,5.8,7.2,7.7c3,1.9,6.4,2.9,10.2,2.9c2.9,0,5.6-0.6,8.1-1.8c2.5-1.2,4.7-2.8,6.5-4.9
			c1.8-2.1,3.2-4.4,4.2-7c1-2.6,1.3-5.4,1.1-8.3c-0.3-4-1.4-7.6-3.2-10.8c-1.8-3.2-4.1-5.7-7-7.5
			C120.1,137.7,116.8,136.8,113.2,136.8z"/>
		<path class="st0" d="M187.7,220c-6.2,0-11.4-1.8-15.8-5.3c-4.4-3.6-7.7-8.7-10-15.5c-2.3-6.7-3.5-14.9-3.5-24.3
			c0-9.4,1.2-17.5,3.5-24.3c2.3-6.7,5.7-11.9,10.1-15.5c4.4-3.6,9.6-5.4,15.8-5.4c6.1,0,11.4,1.8,15.8,5.4
			c4.4,3.6,7.7,8.7,10.1,15.5c2.3,6.7,3.5,14.8,3.5,24.3c0,9.5-1.2,17.6-3.5,24.3c-2.3,6.7-5.7,11.9-10,15.5
			C199.1,218.2,193.8,220,187.7,220z M187.7,212.8c6.8,0,12.1-3.3,15.9-9.9c3.8-6.6,5.7-15.9,5.7-28c0-8-0.9-14.8-2.6-20.5
			c-1.7-5.7-4.2-10-7.4-13c-3.2-3-7.1-4.5-11.6-4.5c-6.7,0-12,3.3-15.8,10c-3.8,6.7-5.7,16-5.7,28c0,8,0.9,14.8,2.6,20.5
			c1.7,5.7,4.2,10,7.4,13C179.3,211.3,183.2,212.8,187.7,212.8z"/>
	</g>
</g>
</svg>
