<?xml version="1.0" encoding="utf-8"?>
<!-- Generator: Adobe Illustrator 25.0.0, SVG Export Plug-In . SVG Version: 6.00 Build 0)  -->
<svg version="1.2" baseProfile="tiny" id="Layer_1" xmlns="http://www.w3.org/2000/svg" xmlns:xlink="http://www.w3.org/1999/xlink"
	 x="0px" y="0px" viewBox="0 0 300 300" overflow="visible" xml:space="preserve">
<g>
	<path fill="#28508F" d="M170.1274414,123.8526688h-6.7266998c-1.2531891-4.3998337-3.0013275-8.6245422-5.2202759-12.612175
		l4.7527618-4.7544479c2.2865448-2.2856216,3.5435181-5.3235779,3.5435181-8.5561829s-1.2569733-6.2708969-3.5435181-8.5551682
		l-6.0905609-6.0927505c-2.2865448-2.2852859-5.324173-3.5447845-8.5561829-3.5447845
		c-3.2332001,0-6.2707214,1.2594986-8.5556793,3.5447845l-4.7538605,4.7551193
		c-3.9891357-2.2202911-8.2133484-3.9684372-12.6145325-5.2205276v-6.72789c0-6.6726532-5.4274597-12.1006317-12.0980988-12.1006317
		h-8.6161194c-6.6729126,0-12.1003113,5.4279785-12.1003113,12.1006317v6.72789
		c-4.3995667,1.2520905-8.6248779,3.0002365-12.6123352,5.2181702l-4.7544556-4.7527618
		c-2.2860413-2.2852859-5.3241577-3.5447845-8.5556641-3.5447845c-3.2331238,0-6.2712402,1.2594986-8.5567932,3.5447845
		l-6.0904541,6.0917358c-2.2865601,2.2852859-3.5458069,5.3235779-3.5458069,8.5561829s1.2592468,6.2705612,3.5458069,8.5544968
		l4.7527466,4.756134c-2.2201233,3.9879684-3.9682617,8.213356-5.2202759,12.612175h-6.7272949
		c-6.6729126,0-12.0997925,5.4286575-12.0997925,12.0992813v8.6161346c0,6.6729889,5.4268799,12.100296,12.0997925,12.100296
		h6.7272949c1.2520142,4.3994904,3.0012512,8.6231995,5.2202759,12.6125183l-4.7527466,4.754776
		c-4.71875,4.7177429-4.71875,12.3942871,0,17.1113586l6.0904541,6.0927429
		c4.7204285,4.7153778,12.3942871,4.7170715,17.1118774-0.0006714l4.7550354-4.7537689
		c3.9874573,2.217926,8.2127686,3.9684296,12.6123352,5.22052v6.7265472c0,6.6729889,5.4273987,12.100296,12.1003113,12.100296
		h8.6161194c6.670639,0,12.0980988-5.4273071,12.0980988-12.100296v-6.7265472
		c4.4011841-1.2520905,8.6248932-3.002594,12.6139526-5.22052l4.7544403,4.7537689
		c4.7170715,4.7177429,12.3932037,4.7177429,17.11026,0l6.0921631-6.0920715c4.7186584-4.7170715,4.7186584-12.3936157,0-17.1113586
		l-4.7527618-4.754776c2.2189484-3.9893188,3.9676819-8.213028,5.2202759-12.6125183h6.7266998
		c6.6729126,0,12.1003876-5.4273071,12.1003876-12.100296v-8.6161346
		C182.227829,129.2813263,176.800354,123.8526688,170.1274414,123.8526688z M105.9554138,174.4202576
		c-18.8358459,0-34.1600037-15.3234711-34.1600037-34.1593933c0-18.8369446,15.3241577-34.1604156,34.1600037-34.1604156
		c18.8364258,0,34.1610718,15.3234711,34.1610718,34.1604156
		C140.1164856,159.0967865,124.7918396,174.4202576,105.9554138,174.4202576z"/>
	<path fill="none" stroke="#FFFFFF" stroke-width="0.6896943" stroke-miterlimit="10" d="M76.3998413,184.975235
		c0.5988464,0,1.2004089,0.1631622,1.7399292,0.4944458c4.7934265,2.9551697,10.0115356,5.1153717,15.5092773,6.4212646
		c1.5003662,0.3560181,2.5612488,1.6981659,2.5612488,3.24086v9.3006287c0,2.9985657,2.4393005,5.4373169,5.4378662,5.4373169
		h8.6160889c2.9963684,0,5.4362183-2.4387512,5.4362183-5.4373169v-9.3006287c0-1.5426941,1.0597687-2.8848419,2.5612488-3.24086
		c5.4988556-1.3058929,10.7158661-3.466095,15.5092926-6.4212646c1.3135986-0.8103485,3.0051575-0.6065216,4.0968018,0.4851074
		l6.5734558,6.5734558c2.1222992,2.1195526,5.5680695,2.1195526,7.6887207,0l6.0921783-6.0921936
		c2.1201019-2.1200867,2.1201019-5.5697174,0-7.6892548l-6.397644-6.3998566
		c-1.0009918-0.8614349-1.419632-2.267334-0.9834137-3.5748749c0.0862579-0.2593079,0.2060242-0.5109406,0.3532562-0.7433319
		c2.9397888-4.7796936,5.0901031-9.9824219,6.3916168-15.4625854c0.3571014-1.5003815,1.6981659-2.5612488,3.2419434-2.5612488
		h9.29953c2.9980316,0,5.4373169-2.4382019,5.4373169-5.4367676v-8.6160889c0-2.9963684-2.4392853-5.4356689-5.4373169-5.4356689
		h-9.29953c-1.5437775,0-2.8848419-1.060318-3.2419434-2.5618057c-1.3053589-5.4966507-3.4644623-10.7131119-6.4168854-15.5037918
		c-0.8097992-1.313591-0.6114655-3.0117569,0.4807129-4.1033936l6.5723572-6.5729065
		c1.027359-1.027359,1.5926819-2.3925934,1.5926819-3.844635c0-1.452034-0.5653229-2.8178177-1.5926819-3.8435287
		l-6.0921783-6.0932922c-2.0530701-2.0536194-5.6351013-2.0536194-7.6865234,0l-6.5756531,6.5729065
		c-1.0916443,1.090538-2.7870483,1.2888718-4.1033936,0.4801636c-4.7906799-2.9529724-10.0071411-5.1109772-15.5027008-6.4163284
		c-1.5025787-0.3565521-2.5612488-1.6981583-2.5612488-3.2414017v-9.2995224c0-2.9991226-2.4398499-5.4378662-5.4362183-5.4378662
		h-8.6160889c-2.9985657,0-5.4378662,2.4387436-5.4378662,5.4378662v9.2995224c0,1.5432434-1.0603333,2.8848495-2.5612488,3.2414017
		c-5.4960938,1.3053513-10.7120056,3.465004-15.5026855,6.4168777c-1.3146973,0.8103561-3.0139771,0.6109238-4.1044922-0.4801636
		l-6.5723572-6.5734558c-2.0541687-2.0536194-5.6362-2.0536194-7.6898193,0l-6.091095,6.0921936
		c-1.026825,1.0268097-1.5926819,2.3925934-1.5926819,3.8446274c0,1.4520416,0.5658569,2.817276,1.5926819,3.8429871
		l6.5729065,6.5745544c1.0916443,1.0916367,1.289978,2.7898026,0.4801636,4.1033936
		c-2.9535217,4.7939758-5.1131897,10.0087891-6.4163208,15.5032425c-0.3571167,1.5014877-1.6981812,2.562355-3.2414246,2.562355
		h-9.3006287c-2.9985657,0-5.4367371,2.4393005-5.4367371,5.4356689v8.6160889c0,2.9985657,2.4381714,5.4367676,5.4367371,5.4367676
		h9.3006287c1.5432434,0,2.8843079,1.0608673,3.2414246,2.5612488c1.3058777,5.4983063,3.4655457,10.7164154,6.4207153,15.5109406
		c0.8103638,1.3130341,0.6070862,3.0046082-0.4845581,4.0957031l-6.5729065,6.5740051
		c-2.1200867,2.1195374-2.1200867,5.5691681,0,7.6892548l6.091095,6.0921936c2.1211853,2.1195526,5.5686035,2.1195526,7.6898193,0
		l6.5740051-6.5734558C74.6862793,185.3103638,75.5394897,184.975235,76.3998413,184.975235z"/>
	<path fill="none" stroke="#FFFFFF" stroke-width="0.3448471" stroke-miterlimit="10" d="M105.9553833,181.0838928
		c-22.5101624,0-40.822998-18.3139191-40.822998-40.8229828c0-22.5107193,18.3128357-40.8240891,40.822998-40.8240891
		c22.5107117,0,40.822998,18.3133698,40.822998,40.8240891C146.7783813,162.7699738,128.466095,181.0838928,105.9553833,181.0838928
		z"/>
	<path fill="none" stroke="#FFFFFF" stroke-width="1.3793886" stroke-miterlimit="10" d="M105.9553833,181.0838928
		c-22.5101624,0-40.822998-18.3139191-40.822998-40.8229828c0-22.5107193,18.3128357-40.8240891,40.822998-40.8240891
		c22.5107117,0,40.822998,18.3133698,40.822998,40.8240891C146.7783813,162.7699738,128.466095,181.0838928,105.9553833,181.0838928
		z"/>
	<path fill="#28508F" d="M258.0346069,155.8866577l-4.5704651,1.9885101
		c-2.1521301-2.6190033-4.5887756-4.972702-7.275238-7.0261383l1.823761-4.6353912
		c0.8779297-2.2289124,0.8339233-4.6646271-0.1216736-6.8610077c-0.9555969-2.1963959-2.7078247-3.8891754-4.936676-4.7652893
		l-5.9393311-2.3392639c-2.2291565-0.8768005-4.66539-0.8345947-6.8613739,0.1208344
		c-2.1967926,0.95578-3.8883209,2.7094727-4.765274,4.9376831l-1.8243103,4.6361694
		c-3.3667755-0.3293304-6.7536926-0.2683716-10.114212,0.1819458l-1.9888458-4.5712585
		c-1.9725342-4.5337372-7.2648163-6.6173248-11.7971802-4.6453857l-5.8542175,2.5470428
		c-4.533905,1.9726105-6.6169434,7.2650604-4.6444092,11.7987823l1.9888458,4.5712585
		c-2.6191406,2.1513062-4.9732513,4.58815-7.0268707,7.27388l-4.6353912-1.8237915
		c-2.2288208-0.8769379-4.66539-0.8345947-6.8610382,0.1206818c-2.1967316,0.9557495-3.8886566,2.7096405-4.7660065,4.9380035
		l-2.3373718,5.9394684c-0.8780212,2.2286682-0.8354492,4.6652832,0.1201477,6.8616791
		c0.9556122,2.1963806,2.709259,3.8882751,4.9380188,4.7641602l4.6352386,1.8265533
		c-0.3295593,3.3659363-0.2682495,6.7536469,0.181427,10.1125336l-4.5708466,1.988678
		c-4.533905,1.9726105-6.6164093,7.2653656-4.6444855,11.7977295l2.5470581,5.8542175
		c1.9726257,4.5339508,7.2643127,6.6172638,11.7982178,4.6446686l4.5708466-1.9886932
		c2.1512299,2.6191254,4.5883331,4.971817,7.2753601,7.0263824l-1.8236847,4.6356201
		c-1.8115234,4.6003876,0.4577789,9.8162079,5.0583649,11.626297l5.93927,2.3392792
		c4.6012268,1.8084259,9.8157196-0.4589233,11.6264343-5.0589752l1.825531-4.6355896
		c3.3649292,0.3282166,6.7532806,0.2685394,10.1127014-0.1813049l1.9884644,4.5703278
		c1.972641,4.5339661,7.2646637,6.6171265,11.7985687,4.6445312l5.8542175-2.5470581
		c4.5323486-1.9719391,6.6156616-7.2639465,4.6430206-11.7979126l-1.9884491-4.570343
		c2.6202393-2.1517792,4.9725494-4.5897369,7.0272675-7.2759399l4.6356659,1.8244629
		c4.5996704,1.8110352,9.8151855-0.4581451,11.6255798-5.0580292l2.3384094-5.9401855
		c1.8116455-4.5999146-0.4576416-9.8157501-5.0583496-11.626297l-4.6348572-1.8256531
		c0.3283691-3.3664856,0.2679443-6.7532349-0.1815186-10.1127472l4.5704651-1.9885101
		c4.5338745-1.9726105,6.6171875-7.2646332,4.6445618-11.798584l-2.5470581-5.8542175
		C267.8609924,155.9981079,262.568512,153.9140472,258.0346069,155.8866577z M229.3814545,209.2149353
		c-12.7980042,5.5681458-27.7398224-0.3133392-33.3079834-13.1113892
		c-5.5684662-12.7987518,0.3136749-27.7403107,13.1116791-33.3084564
		c12.7984009-5.5683136,27.7405548,0.3130188,33.309021,13.1117706
		C248.0623474,188.7049103,242.1798553,203.6466217,229.3814545,209.2149353z"/>
	<path fill="none" stroke="#FFFFFF" stroke-width="0.5110439" stroke-miterlimit="10" d="M212.4201508,225.1235504
		c0.4068756-0.1770172,0.8638611-0.243988,1.3283539-0.1783905c4.1304779,0.5908813,8.3144989,0.5160828,12.4359894-0.2218323
		c1.1246796-0.2016449,2.2422485,0.3966675,2.698288,1.4448547l2.7493896,6.3192902
		c0.8864288,2.037384,3.2647247,2.9732971,5.3021088,2.0868835l5.854187-2.5470428
		c2.0358887-0.8857727,2.972702-3.2640228,2.0862885-5.3014069l-2.7493896-6.3193054
		c-0.4560547-1.048172-0.1327515-2.2733917,0.782196-2.959137c3.3501434-2.5128326,6.2562561-5.5227966,8.6395569-8.9476929
		c0.6529541-0.9389038,1.8625488-1.3004761,2.9269714-0.8814697l6.4095154,2.5231323
		c2.068573,0.8127441,4.40979-0.2058868,5.2241211-2.2729034l2.3383789-5.9402618
		c0.8137817-2.0672302-0.2059937-4.4110718-2.2730408-5.224472l-6.2387695-2.4571381
		c-0.9347839-0.2893982-1.6348267-1.1208649-1.7249756-2.1382294c-0.0180359-0.2016907-0.0110474-0.4080658,0.0202942-0.6094818
		c0.5844727-4.1166077,0.5075073-8.287262-0.2281799-12.3954926c-0.2008972-1.125,0.3966675-2.2422485,1.4455872-2.6986237
		l6.3185425-2.7490692c2.0370178-0.886261,2.9736328-3.2639771,2.0872192-5.3013458l-2.5470581-5.8542023
		c-0.8857422-2.0358887-3.2642212-2.972168-5.301239-2.085907l-6.3185425,2.7490692
		c-1.0489197,0.4563599-2.2735596,0.13237-2.9600525-0.7822418c-2.5118103-3.3488159-5.520874-6.2548828-8.9430847-8.6371307
		c-0.9385376-0.6531219-1.3057861-1.8655701-0.8863983-2.9301453l2.5225372-6.408844
		c0.3943329-1.0017395,0.3748627-2.0964661-0.0543823-3.0830536s-1.2171021-1.7474518-2.2183533-2.1406708l-5.9405823-2.3391418
		c-2.0020447-0.7884064-4.4358521,0.2704926-5.2226105,2.2722473l-2.5247803,6.4098206
		c-0.4193268,1.0636597-1.5126495,1.6996155-2.6461029,1.5392609c-4.1279602-0.5901947-8.3102264-0.514389-12.4300537,0.2232513
		c-1.1263275,0.2019196-2.2422485-0.3966675-2.6984406-1.4452209l-2.7490845-6.3185577
		c-0.8865814-2.0377502-3.2652588-2.9735107-5.3011322-2.087738l-5.8542023,2.5470428
		c-2.0373688,0.8864136-2.9738159,3.2645111-2.0872345,5.3022614l2.7490692,6.3185577
		c0.4562073,1.0485535,0.13237,2.2735596-0.7820435,2.9595184c-3.3484344,2.5116425-6.253952,5.5209198-8.6363678,8.942749
		c-0.653717,0.9392395-1.8672333,1.3060608-2.9307404,0.8871002l-6.408783-2.5234375
		c-2.0027924-0.7881012-4.4365997,0.2707977-5.2248383,2.2732086l-2.3376617,5.9399567
		c-0.3941193,1.0012054-0.3748627,2.0964661,0.0543823,3.0830383c0.429245,0.9865875,1.2173157,1.7469177,2.2181854,2.1403046
		l6.4095001,2.5240326c1.0644073,0.4190063,1.7011719,1.5141907,1.5392609,2.6461029
		c-0.5895996,4.1303711-0.5153961,8.3119965,0.2234192,12.4304199c0.2012177,1.1257477-0.396347,2.2429962-1.4449005,2.6992035
		l-6.3193054,2.7493896c-2.037384,0.8864288-2.9729156,3.2645569-2.0871429,5.3004456l2.5470276,5.854187
		c0.8864288,2.037384,3.2638245,2.9732513,5.3011932,2.0868225l6.3193054-2.7493896
		c1.0485535-0.4562073,2.2733459-0.1318359,2.9595184,0.7820435c2.5126648,3.349762,5.522583,6.2567749,8.9477997,8.6408234
		c0.9387512,0.6526031,1.3006897,1.86203,0.8815155,2.9260712l-2.522583,6.4097443
		c-0.8139343,2.066864,0.2058258,4.4107056,2.273056,5.224472l5.9395294,2.3387146
		c2.0678101,0.8130646,4.4101562-0.2060394,5.2248383-2.2732239l2.5234833-6.4096832
		C211.35495,225.8578033,211.8355865,225.3778839,212.4201508,225.1235504z"/>
	<path fill="none" stroke="#FFFFFF" stroke-width="0.255522" stroke-miterlimit="10" d="M231.3513031,213.7425537
		c-15.2945099,6.6543274-33.151001-0.3755341-39.8050079-15.6692963
		c-6.65448-15.2948914,0.3744659-33.1514282,15.6689758-39.8057556c15.2948914-6.65448,33.1508484,0.3751526,39.8053284,15.6700439
		C253.6745911,189.231308,246.6461945,207.0880585,231.3513031,213.7425537z"/>
	<path fill="none" stroke="#FFFFFF" stroke-width="1.0220878" stroke-miterlimit="10" d="M231.3513031,213.7425537
		c-15.2945099,6.6543274-33.151001-0.3755341-39.8050079-15.6692963
		c-6.65448-15.2948914,0.3744659-33.1514282,15.6689758-39.8057556c15.2948914-6.65448,33.1508484,0.3751526,39.8053284,15.6700439
		C253.6745911,189.231308,246.6461945,207.0880585,231.3513031,213.7425537z"/>
	
		<rect x="86.0058289" y="137.3661346" transform="matrix(0.7071068 -0.7071068 0.7071068 0.7071068 -67.7659149 120.6532288)" fill="#EC7700" width="51.505085" height="9.5223398"/>
	
		<rect x="87.9930878" y="141.9869843" transform="matrix(0.7071068 -0.7071068 0.7071068 0.7071068 -81.1223221 110.1106415)" fill="#EC7700" width="8.7221079" height="21.9832783"/>
	
		<rect x="204.9684753" y="185.0348816" transform="matrix(0.7071068 -0.7071068 0.7071068 0.7071068 -67.7888565 213.291626)" fill="#EC7700" width="37.2057228" height="6.8786473"/>
	
		<rect x="206.4040375" y="188.3728333" transform="matrix(0.7071068 -0.7071068 0.7071068 0.7071068 -77.4371109 205.6759949)" fill="#EC7700" width="6.3005834" height="15.8800669"/>
</g>
</svg>
