<?xml version="1.0" encoding="utf-8"?>
<!-- Generator: Adobe Illustrator 25.0.0, SVG Export Plug-In . SVG Version: 6.00 Build 0)  -->
<svg version="1.2" baseProfile="tiny" id="Layer_1" xmlns="http://www.w3.org/2000/svg" xmlns:xlink="http://www.w3.org/1999/xlink"
	 x="0px" y="0px" viewBox="0 0 300 300" overflow="visible" xml:space="preserve">
<g>
	<polygon fill-rule="evenodd" fill="#2F4888" points="149.7467651,155.036377 56.2681885,101.0590439 56.2681885,202.8365631 
		149.7467651,256.8139038 	"/>
	<path fill-rule="evenodd" fill="#2F4888" d="M149.7467651,258.3861389c-0.2696533,0-0.5390015-0.0668945-0.8066406-0.2155762
		c-0.4831543-0.2675781-0.7507324-0.791748-0.7507324-1.3566589V155.036377c0-0.5631256,0.2675781-1.0852356,0.7507324-1.3697357
		l94.1885986-54.3674545c0.4980164-0.2824478,1.0739746-0.2824478,1.5588989,0
		c0.4962463,0.2824631,0.8048401,0.8066254,0.8048401,1.3715439v101.7757263c0,0.5649109-0.3085938,1.0888214-0.8048401,1.3564148
		l-94.1362915,54.367691C150.2837524,258.3192444,150.0123291,258.3861389,149.7467651,258.3861389z"/>
	<polygon fill-rule="evenodd" fill="#2F4888" points="103.9348145,73.5268555 150.40448,46.691597 243.8943481,100.6707306 
		197.411377,127.5041962 	"/>
	<polygon fill-rule="evenodd" fill="#2F4888" points="56.2681885,101.0590439 102.7398682,74.2235184 196.2166748,128.1898346 
		149.7467651,155.036377 	"/>
	<polygon fill-rule="evenodd" fill="#2F4888" points="243.8943481,100.6707306 150.40448,46.691597 56.2681885,101.0590439 
		149.7467651,155.036377 	"/>
	<path fill-rule="evenodd" fill="#2F4888" d="M59.4234009,101.0590439l90.3233643,52.1375198l90.9772339-52.5258331
		L150.40448,48.5180855L59.4234009,101.0590439L59.4234009,101.0590439z M149.7467651,156.6083527
		c-0.2696533,0-0.5390015-0.0686951-0.8066406-0.2137604l-93.4768066-53.9660721
		c-0.4849243-0.2806549-0.7525024-0.8045654-0.7525024-1.3694763s0.2675781-1.0890732,0.7525024-1.3694839l94.1885986-54.3677063
		c0.498291-0.280407,1.0759888-0.280407,1.5591431,0l93.4765625,53.9773331
		c0.4962463,0.2824631,0.8048401,0.8066254,0.8048401,1.3715439c0,0.5628662-0.3085938,1.0870285-0.8048401,1.3546143
		l-94.1362915,54.3692474C150.2837524,156.5396576,150.0123291,156.6083527,149.7467651,156.6083527z"/>
	<path fill-rule="evenodd" fill="#FFFFFF" d="M57.8270874,201.9240875l90.3623047,52.1508484V155.935791l-90.3623047-52.1377869
		V201.9240875L57.8270874,201.9240875z M149.7467651,258.3861389c-0.2696533,0-0.5390015-0.0668945-0.8066406-0.2155762
		l-93.4768066-53.9663086c-0.4849243-0.2804108-0.7525024-0.8045654-0.7525024-1.367691V101.0590439
		c0-0.5649109,0.2675781-1.0890732,0.7525024-1.3694839c0.4962158-0.2824554,1.1149902-0.2824554,1.5981445,0l93.4898682,53.9770813
		c0.4831543,0.2845001,0.7935791,0.8066101,0.7935791,1.3697357v101.7775269c0,0.5649109-0.3104248,1.0760193-0.7935791,1.3566589
		C150.2837524,258.3192444,150.0123291,258.3861389,149.7467651,258.3861389z"/>
	<polygon fill-rule="evenodd" fill="#2F4888" points="97.2596436,77.3938675 109.4667969,70.3565216 202.9454346,124.318985 
		190.7364502,131.3729858 	"/>
	<path fill-rule="evenodd" fill="#FFFFFF" d="M196.8464355,129.4237213c-0.2675781,0-0.5367432-0.0653534-0.8045654-0.2140198
		l-93.4785767-53.9642563c-0.7653809-0.4418869-1.0332031-1.4102402-0.5762329-2.1627731
		c0.442688-0.7525406,1.369751-1.020134,2.135376-0.5779877l93.4765625,53.979126
		c0.7507324,0.4293289,1.0221558,1.3956299,0.5779419,2.1481628
		C197.9078369,129.1430664,197.3706055,129.4237213,196.8464355,129.4237213z"/>
	<path fill-rule="evenodd" fill="#FFFFFF" d="M196.8464355,152.0946655"/>
	<polyline fill-rule="evenodd" fill="#FFFFFF" points="202.9454346,146.0774536 202.9454346,124.318985 190.7364502,131.3729858 
		190.7364502,153.1165924 	"/>
	<path fill-rule="evenodd" fill="#FFFFFF" d="M110.0237427,71.7207947l90.6748047,51.8626022l40.0254517-22.9126663
		L150.40448,48.5180855l-40.2112427,23.3721962L110.0237427,71.7207947z M197.411377,129.0743713
		c-0.2563477,0-0.5239258-0.0651093-0.7935791-0.2006989L103.1412354,74.896347
		c-0.4962158-0.2827225-0.765564-0.806366-0.765564-1.3694916c0-0.5649109,0.2693481-1.0890732,0.765564-1.3694763
		l46.5106812-26.8355255c0.498291-0.280407,1.0759888-0.280407,1.5591431,0l93.4765625,53.9773331
		c0.4962463,0.2824631,0.8048401,0.8066254,0.8048401,1.3715439c0,0.5628662-0.3085938,1.0870285-0.8048401,1.3546143
		l-46.4716797,26.8483276C197.9483643,129.0092621,197.6789551,129.0743713,197.411377,129.0743713z"/>
	<path fill-rule="evenodd" fill="#FFFFFF" d="M59.4234009,101.0590439l90.3233643,52.1375198l38.0708618-22.1558075
		L97.6513062,80.195076L59.4234009,101.0590439L59.4234009,101.0590439z M149.7467651,156.6083527
		c-0.2696533,0-0.5390015-0.0686951-0.8066406-0.2137604l-93.4768066-53.9660721
		c-0.4849243-0.2806549-0.7525024-0.8045654-0.7525024-1.3694763s0.2675781-1.0890732,0.7525024-1.3694839l46.4681396-26.8355255
		c0.498291-0.2824554,1.1167603-0.2675858,1.6132202,0l93.4783936,53.9791336
		c0.4813232,0.2675934,0.8045654,0.791748,0.8045654,1.3566666c0,0.5631256-0.3232422,1.0870209-0.8045654,1.3694763
		l-46.4717407,26.8352814C150.2837524,156.5396576,150.0123291,156.6083527,149.7467651,156.6083527z"/>
	<polygon fill-rule="evenodd" fill="#FFFFFF" points="240.8309937,200.7490997 241.0366516,198.8141174 219.8843384,211.0263824 
		219.6787109,212.9613647 	"/>
	<polygon fill-rule="evenodd" fill="#FFFFFF" points="226.7662964,190.4406433 226.8442993,205.8235016 224.9172668,206.8027649 
		224.8609009,191.2637787 222.2879333,195.5525665 220.6167297,194.5391846 223.9382629,189.3723602 225.4606323,186.835083 
		230.2583923,190.9408569 229.1512146,192.6938934 	"/>
	<polygon fill-rule="evenodd" fill="#FFFFFF" points="236.2388,185.273819 236.316803,200.6566772 234.3897705,201.6359406 
		234.3334351,186.0969696 231.760437,190.3857422 230.1661377,189.233963 233.4107666,184.2055359 234.933136,181.6682587 
		239.730896,185.7740326 238.6083679,187.4347992 	"/>
</g>
</svg>
